<?xml version="1.0" encoding="UTF-8"?><svg id="Layer_1" xmlns="http://www.w3.org/2000/svg" viewBox="0 0 1874.84 392.11"><defs><style>.cls-1{fill:#fff;}.cls-2{fill:#39b54a;}</style></defs><path class="cls-2" d="M113.92,288.43c-18.16,1.4-23.04-2.1-24.44-18.16-.35-8.38-.35-17.11,0-25.49,.35-8.38,4.54-12.57,14.31-13.62,11.52-1.05,22.69-1.4,33.87-2.1,17.11,0,34.57,0,52.02,.7,17.46,.35,24.09,6.63,25.14,21.65,2.09,25.84-2.79,50.63-14.66,74.72-30.72,63.54-119.06,62.85-160.61,17.11-50.98-56.56-54.82-164.45,1.05-215.77,67.04-62.15,170.73-24.79,173.53,59.35,.35,10.82-3.14,14.31-15.01,18.5-9.43,2.79-18.85,3.14-27.93,2.79-9.78-.35-16.06-4.19-19.2-11.87-1.4-3.84-2.79-8.03-4.54-12.22-12.92-29.68-45.39-25.84-63.89-4.54-26.54,31.07-20.25,93.92,2.79,118.71,20.6,22.35,49.93,12.57,55.16-11.17-10.13,.7-18.85,.7-27.58,1.4Z"/><path class="cls-2" d="M387.65,329.28c.35,11.87-.35,19.55-1.4,31.07-1.05,8.38-5.94,12.57-14.66,12.92-42.25,1.05-80.3,4.54-114.87-.7-10.13-1.4-17.11-8.73-17.46-19.55-2.44-75.76-2.44-149.08-2.79-210.88,0-19.55-.35-42.6,21.65-43.29,12.22-.35,24.44,0,36.31-.35,7.68,0,15.01-.7,22.35-1.05,14.66-.7,28.98-2.1,42.95-2.44,8.73,0,20.25,4.54,23.04,12.92,3.84,11.52,4.89,23.74,2.44,35.26-1.4,10.13-8.03,19.9-21.3,18.85-11.87-1.05-23.74-1.4-35.61-1.75-8.03,0-13.97,.35-18.5,1.4-15.71,3.14-12.22,13.62-12.92,43.99,0,7.68,8.38,9.08,15.01,9.08,12.22,0,22.69-.35,33.17,1.05,6.63,.7,11.52,4.54,11.87,11.87,.35,9.08,1.4,18.85,1.05,27.93-.35,10.47-6.28,15.71-17.46,15.71-5.59,0-11.17-.7-16.41-1.05-5.94-.35-11.87-.7-17.81-.35-5.94,.35-8.03,2.1-8.03,8.03,0,7.68-.35,15.36,0,23.74,.35,9.43,2.44,11.17,11.87,11.17,35.26,0,46.09-1.05,56.91-1.4,13.27-.35,20.25,5.24,20.6,17.81Z"/><path class="cls-2" d="M522.07,184.73c.35,40.5,1.05,84.14,2.09,124.65,.35,12.92,1.4,25.49,1.4,38.41,0,5.94-2.1,12.22-3.84,18.16-2.1,5.94-7.68,8.73-13.97,8.73-8.73,0-17.11,.35-25.49,0-2.79,0-5.59-.35-8.38-1.05-12.22-3.84-14.66-6.98-14.32-19.55,.35-39.1,1.05-78.21,1.05-117.31,.35-19.55-.7-42.95-1.05-62.85,0-3.14-.7-6.63-.7-9.43-11.17,0-20.95,0-30.72,.35-22,0-24.44-2.79-25.14-23.74-.35-6.98-.35-13.97-.35-20.6,0-10.13,2.79-14.66,12.57-17.46,5.94-1.4,12.22-2.79,18.5-3.14,22.35-1.05,44.34-2.1,66.34-2.44,18.16,0,36.66,.35,54.47,.7,3.14,0,5.94,1.05,9.08,1.75,7.33,2.1,11.52,6.98,11.87,14.31,.7,10.47,.7,21.65,.35,32.47-.35,10.47-4.54,13.97-14.31,14.66-13.27,.7-25.84,1.75-39.8,2.44,0,7.33,0,14.32,.35,20.95Z"/><path class="cls-1" d="M629.96,304.84c17.81,0,32.82,14.31,32.47,32.12-.35,18.16-12.92,31.42-32.47,32.47-16.76,1.4-32.12-13.97-32.47-31.42-.35-18.16,14.66-33.17,32.47-33.17Z"/><path class="cls-1" d="M843.99,292.96c-.7,1.4-2.1,2.44-2.44,3.84-4.89,10.82-13.27,16.41-25.49,15.71-7.33-.7-14.66,0-22,0-8.03-.35-12.92-4.89-16.41-11.17-7.33-13.27-11.17-27.23-18.16-39.1-3.49-6.28-6.63-8.73-6.63,3.84v81c0,20.6-5.59,26.54-25.84,27.58-9.08,.35-18.16-.35-26.88-1.4-10.82-1.75-17.11-9.78-17.11-21.65,.35-14.32,1.75-41.9,1.75-56.56,0-60.05-.35-115.57-.35-175.97v-2.44c.35-13.97,4.54-18.5,17.81-19.2,9.78-.35,19.9,.7,30.03,1.4,7.33,.7,12.57,5.24,16.06,11.52,16.76,27.58,32.82,54.47,48.53,82.4,1.05,1.75,2.44,3.49,3.84,5.24,5.59,7.68,8.73,7.68,14.32,0,1.75-2.44,3.84-4.89,5.24-7.68,10.82-21.3,21.3-39.8,32.12-61.1,3.49-6.63,6.63-12.92,10.13-19.2,3.84-8.38,12.22-11.17,19.9-11.87,8.73-1.05,18.16-1.05,27.23-.35,12.57,1.05,19.9,8.73,21.65,20.95,.7,5.24,1.4,10.82,1.05,16.06-.35,41.55-1.05,80.3-1.05,122.55,0,28.98,.7,68.43,1.05,97.41,.35,13.62-2.44,17.11-16.41,18.51-9.08,1.05-17.81,1.4-27.23,1.4-14.66-.35-19.55-5.94-20.25-20.95-.7-26.54-2.1-64.24-3.14-91.13,0-1.05-.35-2.44-.35-3.49-.7,0-1.05-.35-1.75-.35-6.28,11.52-12.92,22.69-19.2,34.22Z"/><path class="cls-1" d="M1331.05,134.45c4.19-14.32,10.12-34.91,26.53-36.31,13.27-.7,24.79-1.4,37.36-.7,13.27,.7,22,2.79,16.06,20.6-24.44,75.42-52.72,154.32-69.83,232.18-1.4,5.59-4.19,10.13-6.98,14.66-3.49,5.94-8.03,9.08-14.66,9.43-16.06,1.05-32.82,2.44-48.88,1.75-17.11-.7-30.38-9.43-34.56-28.63-3.49-15.01-6.29-30.03-9.43-45.39-7.68-42.25-20.6-83.8-33.52-124.65-5.94-17.11-12.57-34.22-14.66-52.37-2.1-12.92,3.84-24.09,16.41-25.49,11.17-1.75,22,0,33.52-1.05,9.08-1.05,15.01,3.84,18.85,12.22,3.14,6.98,6.29,14.31,8.03,21.65,13.27,44.69,20.95,115.57,37.01,158.86,20.6-48.88,24.79-112.08,38.75-156.77Z"/><path class="cls-1" d="M1676.36,327.28c.35,11.87-.35,19.55-1.4,31.07-1.05,8.38-5.93,12.57-14.66,12.92-42.25,1.05-80.3,4.54-114.87-.7-10.13-1.4-17.11-8.73-17.46-19.55-2.44-75.76-2.44-149.08-2.79-210.88,0-19.55-.35-42.6,21.65-43.29,12.22-.35,24.44,0,36.31-.35,7.68,0,15.01-.7,22.35-1.05,14.66-.7,28.98-2.1,42.95-2.44,8.73,0,20.25,4.54,23.04,12.92,3.84,11.52,4.89,23.74,2.44,35.26-1.4,10.13-8.03,19.9-21.3,18.85-11.87-1.05-23.74-1.4-35.61-1.75-8.03,0-13.97,.35-18.5,1.4-15.71,3.14-12.22,13.62-12.92,43.99,0,7.68,8.38,9.08,15.01,9.08,12.22,0,22.69-.35,33.17,1.05,6.63,.7,11.52,4.54,11.87,11.87,.35,9.08,1.4,18.85,1.05,27.93-.35,10.47-6.29,15.71-17.46,15.71-5.59,0-11.17-.7-16.41-1.05-5.93-.35-11.87-.7-17.81-.35-5.94,.35-8.03,2.1-8.03,8.03,0,7.68-.35,15.36,0,23.74,.35,9.43,2.44,11.17,11.87,11.17,35.26,0,46.09-1.05,56.91-1.4,13.27-.35,20.25,5.24,20.6,17.81Z"/><path class="cls-1" d="M1819.16,188.92c-3.14-7.33-6.98-14.32-11.17-20.95-2.1-3.14-5.59-6.63-9.08-9.08-5.94-4.89-12.92-5.24-19.2-1.05-12.57,7.68-11.87,25.84-2.1,34.22,9.08,7.33,18.85,14.32,28.63,20.95,11.52,8.38,24.79,15.36,35.61,23.74,20.95,16.06,30.03,37.71,29.33,63.54-.7,18.85-6.98,35.61-19.9,48.88-22.35,22.69-49.23,29.68-79.95,23.04-24.09-5.24-43.64-17.81-60.4-35.61-9.78-10.48-15.71-23.04-18.85-37.36-1.4-7.33,0-14.32,3.49-20.95,5.94-11.17,14.32-19.55,27.23-22.35,10.82-2.44,21.3,1.74,26.54,11.17,3.84,5.93,6.29,12.22,9.08,18.5,10.12,22.34,44.34,30.72,47.13,7.68,1.05-8.38-3.84-18.85-12.57-25.49-10.47-7.33-21.3-15.36-32.47-21.65-18.16-10.47-33.17-23.39-46.44-39.45-26.53-38.75-7.68-91.83,38.06-105.44,25.49-7.33,50.28-8.38,69.83-.35,28.63,12.22,71.23,48.88,44.34,84.49-13.27,17.46-37.01,25.84-47.14,3.49Z"/><path class="cls-1" d="M1503.19,113.38h6.73c-.12-2.2-.43-4.12-.97-5.75h-5.75v-6.43c-2.03-.91-4.59-1.45-7.79-1.67,0,0,0,0-.01,0v58.35h-53.23v-58.78c-3.27,.51-5.87,1.74-7.8,3.59v4.94h-3.11c-.51,1.46-.82,3.07-.9,4.82-.03,.31-.04,.62-.06,.93h4.07v11h-4.41c0,.45,0,.9,0,1.34-.08,1.46-.15,2.93-.22,4.41h4.64v11h-5.14c-.08,1.91-.16,3.82-.23,5.75h5.37v11h-5.77c-.06,1.91-.12,3.83-.18,5.75h5.95v11h-6.26c-.05,1.91-.1,3.83-.14,5.75h6.4v11h-6.64c-.04,1.91-.07,3.83-.11,5.75h6.75v11h-6.93c-.03,1.92-.06,3.83-.08,5.75h7.01v11h-7.15c-.02,1.92-.04,3.83-.07,5.75h7.22v11h-7.33c-.02,1.92-.04,3.84-.05,5.75h7.38v11h-7.48c-.02,1.92-.03,3.84-.05,5.75h7.52v11h-7.61c-.01,1.92-.03,3.84-.04,5.75h7.65v11h-7.74c-.02,1.92-.03,3.84-.05,5.75h7.79v11h-7.9c-.02,1.93-.04,3.84-.06,5.75h7.96v11h-8.05v5.75h8.05v11h-8.05v5.65s0,.07,0,.1h8.05v11h-6.37c2.25,6.35,6.85,10.6,14.17,12.87v-23.87h53.23v24.01c7.51-1.49,11.7-6.09,12.89-13.01h-5.09v-11h6.17c.1-1.94,.17-3.86,.18-5.75h-6.34v-11h6.46c.02-1.86,.03-3.78,.05-5.75h-6.51v-11h6.58c.01-1.86,.02-3.78,.03-5.75h-6.61v-11h6.65c0-1.87,.01-3.78,.02-5.75h-6.67v-11h6.69c0-1.87,0-3.79,.01-5.75h-6.7v-11h6.72c0-1.88,0-3.8,0-5.75h-6.73v-11h6.74c0-1.88,0-3.8,0-5.75h-6.74v-11h6.75c0-1.89,0-3.8,0-5.75h-6.75v-11h6.75c0-1.89,0-3.81,0-5.75h-6.75v-11h6.76c0-1.89,0-3.81,0-5.75h-6.76v-11h6.76c0-1.9,0-3.81,0-5.75h-6.76v-11h6.76c0-1.9,0-3.81,0-5.75h-6.76v-11h6.76v-5.75h-6.76v-11h6.89c.07-1.93,.14-3.85,.19-5.75h-7.07v-11Zm-7.8,212h-53.23v-61.25h53.23v61.25Zm0-83.75h-53.23v-61.25h53.23v61.25Z"/><g><path class="cls-1" d="M1063.22,122.07c-69,0-124.94,60.45-124.94,135.02s55.94,135.02,124.94,135.02,124.94-60.45,124.94-135.02-55.94-135.02-124.94-135.02Zm39.81,54.71c9.53-10.3,24.98-10.3,34.51,0,9.53,10.3,9.53,26.99,0,37.29-9.53,10.3-24.98,10.3-34.51,0s-9.53-26.99,0-37.29Zm-144.91,80.31c0-14.56,10.93-26.37,24.4-26.37s24.4,11.81,24.4,26.37-10.93,26.37-24.4,26.37-24.4-11.81-24.4-26.37Zm65.29,80.31c-9.53,10.3-24.98,10.3-34.51,0-9.53-10.3-9.53-26.99,0-37.29,9.53-10.3,24.98-10.3,34.51,0,9.53,10.3,9.53,26.99,0,37.29Zm0-123.33c-9.53,10.3-24.98,10.3-34.51,0-9.53-10.3-9.53-26.99,0-37.29,9.53-10.3,24.98-10.3,34.51,0,9.53,10.3,9.53,26.99,0,37.29Zm39.81,156.6c-13.48,0-24.4-11.81-24.4-26.37s10.93-26.37,24.4-26.37,24.4,11.81,24.4,26.37-10.92,26.37-24.4,26.37Zm0-174.42c-13.48,0-24.4-11.81-24.4-26.37s10.93-26.37,24.4-26.37,24.4,11.81,24.4,26.37-10.92,26.37-24.4,26.37Zm74.32,141.15c-9.53,10.3-24.98,10.3-34.51,0s-9.53-26.99,0-37.29c9.53-10.3,24.98-10.3,34.51,0,9.53,10.3,9.53,26.99,0,37.29Zm6.38-53.94c-13.48,0-24.4-11.81-24.4-26.37s10.93-26.37,24.4-26.37,24.4,11.81,24.4,26.37-10.93,26.37-24.4,26.37Z"/><path class="cls-1" d="M1095.89,112.79c39.21,2.73,65.03-69.92,65.03-69.92L1116.79,0c-10.77,33.99-35.63,85.57-87.49,95.97-51.86,10.4-51.77,49.27-51.77,49.27,9.51-13.67,53.03-37,118.36-32.45Z"/></g></svg>