<?xml version="1.0" encoding="UTF-8"?><svg id="Layer_1" xmlns="http://www.w3.org/2000/svg" viewBox="0 0 1871.12 325.38"><defs><style>.cls-1{fill:#fff;}.cls-2{fill:#39b54a;}</style></defs><path class="cls-2" d="M143.02,257.3c-2.91,5.09-6.55,10.19-9.46,15.28-14.19,23.65-38.93,30.93-61.49,28.01C-18.88,288.23-3.6,83.75,11.31,24.45c1.46-7.28,6.91-12.37,15.28-11.64,10.19,1.09,20.01,.73,30.2,1.46,13.46,1.09,19.28,6.55,18.92,20.01-.73,21.83-4,60.03-5.46,81.5-1.46,28.38-3.27,56.03,1.09,84.04,.73,5.46,3.27,11.28,6.18,16.37,6.55,11.28,18.92,10.55,24.01-1.09,4-9.82,7.28-19.65,8.37-30.2,3.27-24.74,4.73-49.85,6.55-74.95,.73-10.55,1.09-21.47,1.09-32.38-.36-14.55,8.37-19.28,18.56-20.37,10.19-1.09,20.37-.73,30.56,0,9.82,.36,14.55,5.09,15.28,15.64,1.09,18.56,1.46,37.84,2.55,57.12,.73,20.01,.73,39.66,2.55,58.94,6.91,57.49,47.66,38.57,53.12-8,6.19-48.39,1.46-97.87,0-145.53-1.82-12.01,4-21.1,16.37-22.19,10.19-.73,20.74-.73,30.93,0,9.82,.36,16.74,7.28,18.56,17.1,9.82,49.85,16.37,143.35-4,208.11-26.2,82.23-118.61,82.59-152.08,7.64-2.91,4.73-4.73,8.37-6.91,11.28Z"/><path class="cls-2" d="M673.86,103.12c.36,42.2,1.09,87.68,2.18,129.89,.36,13.46,1.46,26.56,1.46,40.02,0,6.18-2.18,12.73-4,18.92-2.18,6.19-8,9.1-14.55,9.1-9.1,0-17.83,.36-26.56,0-2.91,0-5.82-.36-8.73-1.09-12.73-4-15.28-7.28-14.92-20.37,.36-40.75,1.09-81.5,1.09-122.25,.36-20.37-.73-44.75-1.09-65.49,0-3.27-.73-6.91-.73-9.82-11.64,0-21.83,0-32.02,.36-22.92,0-25.47-2.91-26.2-24.74-.36-7.28-.36-14.55-.36-21.47,0-10.55,2.91-15.28,13.1-18.19,6.19-1.46,12.73-2.91,19.28-3.27,23.29-1.09,46.21-2.18,69.13-2.55,18.92,0,38.2,.36,56.76,.73,3.27,0,6.19,1.09,9.46,1.82,7.64,2.18,12.01,7.28,12.37,14.92,.73,10.92,.73,22.56,.36,33.84-.36,10.91-4.73,14.55-14.92,15.28-13.83,.73-26.92,1.82-41.48,2.55,0,7.64,0,14.92,.36,21.83Z"/><path class="cls-2" d="M751.72,108.57c7.28-36.75,36.02-80.41,76.04-92.41,42.57-12.73,89.87,13.83,102.97,51.3,4.37,13.46,2.91,25.83-8,35.66-10.19,8.73-21.47,10.19-34.56,6.91-6.19-1.46-10.92-5.82-12.73-12.01-.73-2.91-1.46-5.82-2.91-9.1-5.09-13.1-17.83-17.83-30.56-10.91-3.27,2.55-6.91,5.46-8.73,8.73-4,4.73-7.64,10.19-9.82,16.01-9.82,27.29-13.83,56.03-5.82,84.41,12.37,57.49,45.11,64.4,74.95,11.28,4.73-8,10.19-11.28,19.65-8.73,6.91,1.46,13.83,4,20.74,6.91,15.64,5.46,12.37,21.47,9.09,33.11-10.91,38.57-44.75,74.22-92.05,71.31-106.24-5.09-113.15-116.43-98.23-192.47Z"/><path class="cls-2" d="M1117.01,141.52c2.91-37.84,2.91-73.49,5.09-109.51,.73-24.38,39.66-21.83,57.85-18.56,14.92,2.55,13.1,22.19,12.01,31.65-2.18,68.4-2.91,146.26,.36,210.29,2.55,37.11,3.27,42.2-39.29,45.48-31.65,1.82-39.29-12.73-39.29-44.39-.36-15.28-.36-41.11-.36-57.12-26.56-1.46-52.03,1.09-78.95-.73-.36,5.46-.73,10.55-.73,14.92-.36,18.92-.36,44.39-.36,62.22,0,13.83-8,24.38-21.1,25.1-10.55,.36-20.37,.73-29.83-.73-15.28-1.82-21.1-9.1-21.1-20.74,0-87.32,3.27-174.28,2.18-239.04-2.18-15.64,5.82-24.74,24.38-25.83,9.82-.73,20.01-.73,30.93-.36,15.64,.73,21.1,5.09,21.1,19.65,0,33.11-.36,66.22-.36,99.69v6.55c12.01,2.55,61.85,3.64,77.5,1.46Z"/><path class="cls-1" d="M1308.39,227.02c13.1,0,25.83,0,38.93,.36,8.37,0,12.73,5.09,14.55,13.1,3.27,13.83,3.27,28.02,0,41.84-1.82,9.46-8.37,13.83-17.46,15.28-4.37,.36-8.73,.73-12.73,1.09-30.2,1.09-60.76,4.37-90.59,1.09-12.73-1.46-22.19-10.55-24.01-23.65-1.45-8.73-2.18-17.46-2.91-26.2-1.09-70.22-2.18-146.26-2.91-216.48,0-8.73,2.55-18.56,12.01-19.28,17.83-1.46,37.11-1.46,55.3-.36,6.55,.73,10.55,6.19,10.91,12.73,.73,9.46,1.46,19.28,1.46,29.47,1.82,48.39,2.55,102.96,3.64,151.35,.36,6.55,0,13.1,0,20.37,5.46-.36,9.46-.73,13.83-.73Z"/><path class="cls-1" d="M1616.56,107.7c-3.27-7.64-7.28-14.92-11.64-21.83-2.18-3.27-5.82-6.91-9.46-9.46-6.19-5.09-13.46-5.46-20.01-1.09-13.1,8-12.37,26.92-2.18,35.66,9.46,7.64,19.65,14.92,29.83,21.83,12.01,8.73,25.83,16.01,37.11,24.74,21.83,16.74,31.29,39.29,30.56,66.22-.73,19.65-7.28,37.11-20.74,50.94-23.29,23.65-51.3,30.93-83.32,24.01-25.11-5.46-45.48-18.56-62.94-37.11-10.19-10.92-16.37-24.01-19.65-38.93-1.45-7.64,0-14.92,3.64-21.83,6.18-11.64,14.92-20.37,28.38-23.29,11.28-2.55,22.19,1.82,27.65,11.64,4,6.18,6.55,12.73,9.46,19.28,10.55,23.29,46.21,32.02,49.12,8,1.09-8.73-4-19.65-13.1-26.56-10.91-7.64-22.19-16.01-33.84-22.56-18.92-10.92-34.56-24.38-48.39-41.11-27.65-40.39-8-95.69,39.66-109.88,26.56-7.64,52.39-8.73,72.77-.36,29.83,12.73,74.22,50.94,46.21,88.05-13.83,18.19-38.57,26.92-49.12,3.64Z"/><path class="cls-1" d="M1814.85,103.12c.36,42.2,1.09,87.68,2.18,129.89,.36,13.46,1.45,26.56,1.45,40.02,0,6.18-2.18,12.73-4,18.92-2.18,6.19-8,9.1-14.55,9.1-9.1,0-17.83,.36-26.56,0-2.91,0-5.82-.36-8.73-1.09-12.73-4-15.28-7.28-14.92-20.37,.36-40.75,1.09-81.5,1.09-122.25,.36-20.37-.73-44.75-1.09-65.49,0-3.27-.73-6.91-.73-9.82-11.64,0-21.83,0-32.02,.36-22.92,0-25.47-2.91-26.2-24.74-.36-7.28-.36-14.55-.36-21.47,0-10.55,2.91-15.28,13.1-18.19,6.19-1.46,12.73-2.91,19.28-3.27,23.29-1.09,46.21-2.18,69.13-2.55,18.92,0,38.2,.36,56.76,.73,3.27,0,6.19,1.09,9.46,1.82,7.64,2.18,12.01,7.28,12.37,14.92,.73,10.92,.73,22.56,.36,33.84-.36,10.91-4.73,14.55-14.92,15.28-13.83,.73-26.92,1.82-41.48,2.55,0,7.64,0,14.92,.36,21.83Z"/><path class="cls-1" d="M1461.56,28.04h7.11c-.13-2.33-.45-4.35-1.03-6.08h-6.08v-6.79c-2.14-.96-4.85-1.54-8.23-1.76,0,0,0,0-.01,0v61.65h-56.25V12.95c-3.45,.54-6.2,1.84-8.24,3.79v5.22h-3.28c-.54,1.54-.86,3.24-.95,5.1-.03,.33-.04,.65-.07,.98h4.3v11.62h-4.66c0,.47,0,.95,0,1.42-.08,1.54-.16,3.1-.24,4.66h4.9v11.62h-5.43c-.09,2.02-.17,4.04-.25,6.08h5.68v11.62h-6.1c-.07,2.02-.13,4.04-.19,6.08h6.29v11.62h-6.61c-.05,2.02-.1,4.05-.15,6.08h6.76v11.62h-7.02c-.04,2.02-.08,4.05-.11,6.08h7.13v11.62h-7.32c-.03,2.02-.06,4.05-.09,6.08h7.41v11.62h-7.56c-.02,2.03-.05,4.05-.07,6.08h7.63v11.62h-7.75c-.02,2.03-.04,4.05-.06,6.08h7.8v11.62h-7.9c-.02,2.03-.03,4.05-.05,6.08h7.95v11.62h-8.04c-.02,2.03-.03,4.06-.05,6.08h8.08v11.62h-8.18c-.02,2.03-.04,4.06-.05,6.08h8.23v11.62h-8.34c-.02,2.04-.04,4.06-.07,6.08h8.41v11.62h-8.51v6.08h8.51v11.62h-8.51v5.97s0,.07,0,.11h8.5v11.62h-6.74c2.37,6.71,7.24,11.2,14.98,13.6v-25.22h56.25v25.37c7.93-1.58,12.37-6.44,13.62-13.75h-5.38v-11.62h6.52c.11-2.05,.18-4.08,.19-6.08h-6.7v-11.62h6.83c.02-1.97,.03-3.99,.05-6.08h-6.88v-11.62h6.95c.01-1.97,.02-4,.03-6.08h-6.98v-11.62h7.03c0-1.98,.01-4,.02-6.08h-7.04v-11.62h7.07c0-1.98,0-4.01,.01-6.08h-7.08v-11.62h7.1c0-1.99,0-4.01,0-6.08h-7.11v-11.62h7.12c0-1.99,0-4.02,0-6.08h-7.12v-11.62h7.13c0-1.99,0-4.02,0-6.08h-7.13v-11.62h7.14c0-2,0-4.02,0-6.08h-7.14v-11.62h7.14c0-2,0-4.03,0-6.08h-7.14v-11.62h7.14c0-2,0-4.03,0-6.08h-7.14v-11.62h7.14c0-2,0-4.03,0-6.08h-7.14v-11.62h7.14v-6.08h-7.14v-11.62h7.28c.07-2.04,.15-4.06,.2-6.08h-7.47v-11.62Zm-8.24,224.02h-56.25v-64.72h56.25v64.72Zm0-88.5h-56.25V98.83h56.25v64.72Z"/><path class="cls-2" d="M482.55,325.38l57.01-.18-.95-300.69-46.24,.15-6.22-1.32L442.28,0l-141.22,265.47,50.33,26.78,47.56-89.41,83.18-7.67,.41,130.22Zm8.57-273.15l38.1-16.68,.07,22.17-38.1,16.68-.07-22.17Zm.15,47.99l38.1-16.68,.07,22.17-38.1,16.68-.07-22.17Zm.15,47.99l38.1-16.68,.07,22.17-38.1,16.68-.07-22.17Zm38.62,149.45l-38.1,16.68-.07-22.17,38.1-16.68,.07,22.17Zm-.15-47.99l-38.1,16.68-.07-22.17,38.1-16.68,.07,22.17Zm-38.25-31.31l-.07-22.17,38.1-16.68,.07,22.17-38.1,16.68ZM445.43,14.16l25.91,32.54-10.41,19.57-25.91-32.54,10.41-19.57Zm-22.54,42.36l25.91,32.54-10.41,19.57-25.91-32.54,10.41-19.57Zm-22.54,42.36l25.91,32.54-10.41,19.57-25.91-32.54,10.41-19.57Zm-52.11,179.2l-25.91-32.54,10.41-19.57,25.91,32.54-10.41,19.57Zm22.54-42.36l-25.91-32.54,10.41-19.57,25.91,32.54-10.41,19.57Zm-3.37-74.9l10.41-19.57,25.91,32.54-10.41,19.57-25.91-32.54Zm50.88,5.67l61.86-116.28,.5-.18,1.04,1.2,.33,104.15-63.72,11.11Z"/></svg>